<svg xmlns:xlink="http://www.w3.org/1999/xlink" width="96" xmlns="http://www.w3.org/2000/svg" height="96" id="screenshot-7d7d16fc-e83f-8046-8002-95ed6182e36d" viewBox="0 0 96 96" style="-webkit-print-color-adjust: exact;" fill="none" version="1.1"><g id="shape-7d7d16fc-e83f-8046-8002-95ed6182e36d" rx="0" ry="0"><g id="shape-7d7d16fc-e83f-8046-8002-95e6f623af76"><g class="fills" id="fills-7d7d16fc-e83f-8046-8002-95e6f623af76"><rect rx="0" ry="0" x="0" y="0" transform="matrix(1.000000, 0.000000, 0.000000, 1.000000, 0.000000, 0.000000)" width="96.00000000000026" height="96.00000000000057" style="fill: rgb(0, 0, 0); fill-opacity: 1;"/></g></g><g id="shape-e2f5b22b-19c3-807c-8002-981ee417adfc" rx="0" ry="0" style="fill: rgb(0, 0, 0);"><g id="shape-e2f5b22b-19c3-807c-8002-981ee417adfd" rx="0" ry="0" style="fill: rgb(0, 0, 0);"><g id="shape-e2f5b22b-19c3-807c-8002-981ee417adfe" rx="0" ry="0" style="fill: rgb(0, 0, 0);"><g id="shape-e2f5b22b-19c3-807c-8002-981ee417f438" rx="0" ry="0" style="fill: rgb(0, 0, 0);"><g id="shape-e2f5b22b-19c3-807c-8002-981ee41ba0da"><g class="fills" id="fills-e2f5b22b-19c3-807c-8002-981ee41ba0da"><path stroke="none" rx="0" ry="0" d="M63.507,53.997C62.469,54.235,59.737,54.372,59.737,54.372L59.391,55.453C59.391,55.453,60.753,55.338,61.748,55.438C61.748,55.438,62.072,55.402,62.108,55.806C62.123,56.181,62.080,56.585,62.080,56.585C62.080,56.585,62.058,56.830,61.712,56.887C61.337,56.952,58.771,57.046,58.771,57.046L58.353,58.452C58.353,58.452,58.201,58.776,58.547,58.682C58.872,58.596,61.560,58.091,61.914,58.163C62.289,58.257,62.707,58.754,62.584,59.216C62.440,59.778,59.758,61.494,58.122,61.371C58.122,61.371,57.264,61.429,56.536,60.268C55.859,59.165,56.796,57.068,56.796,57.068C56.796,57.068,56.370,56.087,56.680,55.763C56.680,55.763,56.868,55.597,57.401,55.554L58.057,54.191C58.057,54.191,57.307,54.242,56.861,53.694C56.442,53.168,56.414,52.930,56.731,52.786C57.070,52.620,60.191,52.050,62.339,52.123C62.339,52.123,63.089,52.050,63.730,53.348C63.723,53.348,64.040,53.874,63.507,53.997ZZM55.426,59.230C55.152,59.879,54.424,60.571,53.523,60.138C52.629,59.706,51.209,56.801,51.209,56.801C51.209,56.801,50.668,55.720,50.567,55.741C50.567,55.741,50.452,55.532,50.380,56.714C50.308,57.897,50.394,60.196,49.926,60.556C49.479,60.917,48.938,60.773,48.657,60.347C48.405,59.929,48.297,58.935,48.434,57.190C48.600,55.446,49.003,53.586,49.522,53.002C50.041,52.425,50.459,52.843,50.618,52.995C50.618,52.995,51.310,53.622,52.456,55.467L52.658,55.806C52.658,55.806,53.696,57.551,53.804,57.543C53.804,57.543,53.891,57.623,53.963,57.565C54.071,57.536,54.028,56.974,54.028,56.974C54.028,56.974,53.811,55.078,52.867,51.863C52.867,51.863,52.723,51.459,52.824,51.084C52.917,50.702,53.300,50.883,53.300,50.883C53.300,50.883,54.770,51.618,55.477,54.011C56.176,56.426,55.700,58.581,55.426,59.230ZZM48.203,53.081C48.081,53.326,48.008,53.680,47.389,53.773C47.389,53.773,41.456,54.177,41.175,54.595C41.175,54.595,40.966,54.840,41.290,54.912C41.615,54.977,42.955,55.157,43.604,55.193C44.296,55.201,46.632,55.222,47.468,56.267C47.468,56.267,47.965,56.765,47.944,57.889C47.922,59.043,47.720,59.446,47.273,59.864C46.805,60.254,42.782,62.056,40.187,59.288C40.187,59.288,38.991,57.954,40.598,56.945C40.598,56.945,41.759,56.246,44.707,57.068C44.707,57.068,45.601,57.392,45.558,57.716C45.507,58.062,44.822,58.430,43.828,58.408C42.862,58.380,42.155,57.918,42.292,57.990C42.422,58.041,41.254,57.428,40.894,57.846C40.533,58.228,40.620,58.466,40.973,58.704C41.874,59.216,45.356,59.035,46.394,57.882C46.394,57.882,46.805,57.414,46.178,57.032C45.550,56.671,43.755,56.455,43.056,56.419C42.386,56.383,39.892,56.426,39.531,55.763C39.531,55.763,39.171,55.316,39.567,54.047C39.985,52.721,42.890,52.209,44.145,52.094C44.145,52.094,47.598,51.971,48.232,52.678C48.225,52.678,48.311,52.843,48.203,53.081ZZM38.400,60.859C37.981,61.169,37.095,61.032,36.842,60.686C36.590,60.376,36.504,59.144,36.554,57.212C36.605,55.258,36.648,52.836,37.066,52.454C37.513,52.065,37.787,52.404,37.960,52.670C38.147,52.930,38.371,53.218,38.421,53.831C38.464,54.444,38.609,57.659,38.609,57.659C38.609,57.659,38.796,60.556,38.400,60.859ZZM39.301,50.493C38.082,50.897,37.246,50.760,36.540,50.457C36.230,50.998,36.050,51.164,35.812,51.200C35.466,51.236,35.156,50.681,35.098,50.501C35.040,50.364,34.875,50.133,35.076,49.585C34.384,48.965,34.334,48.129,34.449,47.567C34.622,46.918,35.790,44.453,39.344,44.164C39.344,44.164,41.081,44.035,41.377,44.964L41.427,44.964C41.427,44.964,43.114,44.972,43.078,46.471C43.056,47.978,41.204,49.852,39.301,50.493ZZM35.985,47.156C35.624,47.733,35.610,48.079,35.776,48.316C36.186,47.689,36.936,46.702,38.039,45.952C37.188,46.024,36.475,46.392,35.985,47.156ZZM40.894,46.190C39.776,46.356,38.046,47.855,37.225,49.081C38.486,49.311,40.713,49.225,41.701,47.214C41.694,47.214,42.170,45.966,40.894,46.190ZZM71.227,57.803C70.557,58.971,68.675,61.407,66.167,60.838C65.338,62.849,64.646,64.874,64.249,67.916C64.249,67.916,64.163,68.507,63.673,68.298C63.190,68.125,62.382,67.318,62.224,66.201C62.051,64.730,62.707,62.243,64.040,59.396C63.651,58.762,63.384,57.853,63.615,56.563C63.615,56.563,63.954,54.170,66.354,52.007C66.354,52.007,66.643,51.755,66.808,51.834C66.996,51.913,66.909,52.692,66.758,53.067C66.606,53.442,65.532,55.301,65.532,55.301C65.532,55.301,64.862,56.556,65.049,57.543C66.311,55.604,69.180,51.690,70.960,52.923C71.559,53.348,71.833,54.278,71.833,55.280C71.825,56.167,71.616,57.104,71.227,57.803ZZM70.708,54.732C70.708,54.732,70.607,53.961,69.858,54.811C69.209,55.525,68.041,56.873,67.097,58.697C68.084,58.589,69.036,58.048,69.324,57.774C69.793,57.356,70.881,56.231,70.708,54.732ZZM35.711,55.712C35.574,57.457,34.903,60.391,30.153,61.840C27.017,62.784,24.055,62.330,22.440,61.919C22.404,62.560,22.332,62.834,22.231,62.943C22.094,63.079,21.070,63.671,20.508,62.834C20.256,62.438,20.126,61.717,20.054,61.076C16.421,59.403,14.748,56.995,14.683,56.887C14.604,56.808,13.775,55.943,14.604,54.883C15.383,53.925,17.927,52.966,20.220,52.577C20.299,50.616,20.530,49.138,20.804,48.461C21.135,47.675,21.553,48.381,21.914,48.915C22.216,49.311,22.397,51.020,22.411,52.382C23.910,52.310,24.797,52.418,26.469,52.721C28.646,53.117,30.102,54.227,29.973,55.489C29.879,56.729,28.740,57.241,28.308,57.277C27.853,57.313,27.147,56.988,27.147,56.988C26.664,56.758,27.111,56.556,27.695,56.303C28.329,55.993,28.185,55.676,28.185,55.676C27.947,54.984,25.121,54.501,22.310,54.501C22.296,56.051,22.375,58.625,22.411,60.124C24.379,60.499,25.849,60.427,25.849,60.427C25.849,60.427,33.029,60.225,33.245,55.640C33.469,51.048,26.087,46.644,20.631,45.246C15.181,43.818,12.096,44.813,11.829,44.950C11.541,45.094,11.807,45.137,11.807,45.137C11.807,45.137,12.103,45.181,12.615,45.354C13.155,45.527,12.737,45.808,12.737,45.808C11.807,46.103,10.762,45.916,10.560,45.491C10.358,45.065,10.697,44.683,11.086,44.135C11.476,43.559,11.901,43.580,11.901,43.580C18.641,41.245,26.851,45.469,26.851,45.469C34.543,49.369,35.855,53.939,35.711,55.712ZZM15.368,55.474C14.604,55.849,15.130,56.390,15.130,56.390C16.565,57.933,18.331,58.899,20.011,59.497C20.205,56.837,20.176,55.900,20.198,54.559C17.574,54.739,16.060,55.157,15.368,55.474ZZ" style="fill: rgb(255, 255, 255); fill-opacity: 1;"/></g></g></g></g><g id="shape-e2f5b22b-19c3-807c-8002-981ee41be2fa" rx="0" ry="0" style="fill: rgb(0, 0, 0);"><g id="shape-e2f5b22b-19c3-807c-8002-981ee41c0ce4" rx="0" ry="0" style="fill: rgb(0, 0, 0);"><g id="shape-e2f5b22b-19c3-807c-8002-981ee41c0ce5" rx="0" ry="0" style="fill: rgb(0, 0, 0);"><g id="shape-e2f5b22b-19c3-807c-8002-981ee41cafff"><g class="fills" id="fills-e2f5b22b-19c3-807c-8002-981ee41cafff"><path stroke="none" rx="0" ry="0" d="M85.500,54.927L85.500,55.878C85.500,56.087,85.334,56.253,85.125,56.253L80.591,56.253C80.591,56.491,80.598,56.700,80.598,56.895C80.598,58.300,80.541,59.446,80.404,60.737C80.382,60.931,80.223,61.076,80.036,61.076L79.056,61.076C78.955,61.076,78.861,61.032,78.796,60.960C78.731,60.888,78.695,60.787,78.710,60.686C78.847,59.403,78.911,58.271,78.911,56.895C78.911,56.693,78.911,56.484,78.904,56.253L74.420,56.253C74.211,56.253,74.046,56.087,74.046,55.878L74.046,54.927C74.046,54.718,74.211,54.552,74.420,54.552L78.839,54.552C78.746,53.002,78.558,51.510,78.255,49.996C78.241,49.902,78.263,49.809,78.320,49.737C78.378,49.664,78.464,49.621,78.558,49.621L79.618,49.621C79.784,49.621,79.921,49.737,79.957,49.902C80.252,51.467,80.440,52.988,80.533,54.552L85.125,54.552C85.327,54.552,85.500,54.725,85.500,54.927ZZ" style="fill: rgb(255, 255, 255); fill-opacity: 1;"/></g></g></g></g></g><g id="shape-e2f5b22b-19c3-807c-8002-981ee41ce82e" rx="0" ry="0" style="fill: rgb(0, 0, 0);"><g id="shape-e2f5b22b-19c3-807c-8002-981ee41ce82f" rx="0" ry="0" style="fill: rgb(0, 0, 0);"><g id="shape-e2f5b22b-19c3-807c-8002-981ee41dd8c3"><defs><radialGradient cx="942.524" cy="279.896" r="760.124" id="rumext-id-17-radial-gradient" gradientUnits="userSpaceOnUse" fx="942.524" fy="279.896" gradientTransform="matrix(0.072085, 0.000000, 0.000000, 0.072085, 10.466483, 27.635169)"><stop offset="0.007" stop-color="#021192" stop-opacity="1"/><stop offset="0.03" stop-color="#021096" stop-opacity="1"/><stop offset="0.057" stop-color="#010cb4" stop-opacity="1"/><stop offset="0.084" stop-color="#0008ce" stop-opacity="1"/><stop offset="0.111" stop-color="#0006d7" stop-opacity="1"/><stop offset="0.138" stop-color="#0004e1" stop-opacity="1"/><stop offset="0.165" stop-color="#0001fa" stop-opacity="1"/><stop offset="0.191" stop-color="#0000fe" stop-opacity="1"/><stop offset="0.216" stop-color="#0f1eff" stop-opacity="1"/><stop offset="1" stop-color="#00ffff" stop-opacity="0"/></radialGradient><linearGradient id="fill-color-gradient_rumext-id-17_0" x1="0.9886578102125242" y1="0.9749515459400281" x2="-0.14764801534593677" y2="0.4943829677523383" gradientTransform="matrix(1.000000, 0.000000, 0.000000, 1.000000, 0.000000, 0.000000)"><stop offset="0" stop-color="#ffffff" stop-opacity="1"/><stop offset="1" stop-color="#ffffff" stop-opacity="0.23125"/></linearGradient><pattern patternUnits="userSpaceOnUse" x="23.624354577952154" y="27.656794860553987" height="20.191073254308776" width="55.729478398322435" data-loading="false" patternTransform="matrix(1.000000, 0.000000, 0.000000, 1.000000, 0.000000, 0.000000)" id="fill-0-rumext-id-17"><g><rect width="55.729478398322435" height="20.191073254308776" style="fill: url(&quot;#fill-color-gradient_rumext-id-17_0&quot;);"/></g></pattern></defs><g class="fills" id="fills-e2f5b22b-19c3-807c-8002-981ee41dd8c3"><path fill="url(#fill-0-rumext-id-17)" rx="0" ry="0" d="M79.330,47.379C76.987,41.620,73.029,36.711,67.882,33.179C62.613,29.567,56.435,27.657,50.020,27.657C39.409,27.657,29.562,32.926,23.687,41.757C23.622,41.850,23.608,41.973,23.644,42.081C23.680,42.196,23.766,42.276,23.874,42.312L24.696,42.593C24.747,42.607,24.797,42.614,24.840,42.614C24.992,42.614,25.136,42.535,25.222,42.413C27.918,38.448,31.566,35.154,35.776,32.876C40.122,30.526,45.046,29.279,50.012,29.279C56.017,29.279,61.806,31.052,66.765,34.397C71.602,37.662,75.358,42.225,77.628,47.581C77.693,47.740,77.852,47.848,78.025,47.848L79.005,47.848C79.120,47.848,79.229,47.790,79.286,47.696C79.358,47.603,79.373,47.487,79.330,47.379ZZM24.840,42.369C24.819,42.369,24.797,42.362,24.840,42.369ZC24.797,42.362,24.819,42.369,24.840,42.369ZL24.840,42.369ZC24.855,42.369,24.847,42.369,24.840,42.369ZZM77.823,47.718C77.845,47.733,77.866,47.747,77.823,47.718ZC77.866,47.740,77.845,47.733,77.823,47.718ZZ"/></g></g></g></g></g></g></g></svg>