<svg xmlns:xlink="http://www.w3.org/1999/xlink" width="96" xmlns="http://www.w3.org/2000/svg" height="96" id="screenshot-7d7d16fc-e83f-8046-8002-95e53bc89602" viewBox="0 0 96 96" style="-webkit-print-color-adjust: exact;" fill="none" version="1.1"><g id="shape-7d7d16fc-e83f-8046-8002-95e53bc89602" rx="0" ry="0" style="fill: rgb(0, 0, 0);"><g id="shape-7d7d16fc-e83f-8046-8002-95e57f199483"><g class="fills" id="fills-7d7d16fc-e83f-8046-8002-95e57f199483"><rect rx="0" ry="0" x="0" y="0" transform="matrix(1.000000, 0.000000, 0.000000, 1.000000, 0.000000, 0.000000)" width="96.00000000000023" height="96"/></g></g><g id="shape-7d7d16fc-e83f-8046-8002-95e53bca414d"><g class="fills" id="fills-7d7d16fc-e83f-8046-8002-95e53bca414d"><path rx="0" ry="0" d="M27.177,44.879C28.419,45.888,29.040,47.464,29.040,49.607L29.040,60.368L23.124,60.368L23.124,50.399C23.124,49.965,22.961,49.584,22.635,49.258C22.309,48.932,21.928,48.769,21.494,48.769L18.047,48.769C17.611,48.769,17.239,48.932,16.929,49.258C16.618,49.584,16.463,49.965,16.463,50.399L16.463,60.368L10.500,60.368L10.500,35.632L16.463,35.632L16.463,43.691C16.556,43.660,16.773,43.598,17.115,43.505C17.456,43.412,17.907,43.365,18.466,43.365L22.286,43.365C24.304,43.365,25.935,43.870,27.177,44.879ZZM45.950,43.365L51.913,43.365L51.913,53.800C51.913,55.756,51.377,57.340,50.306,58.551C49.235,59.762,47.782,60.368,45.950,60.368L40.081,60.368C38.031,60.368,36.393,59.802,35.166,58.668C33.939,57.534,33.326,55.912,33.326,53.800L33.326,43.365L39.289,43.365L39.289,53.334C39.289,53.769,39.444,54.142,39.755,54.452C40.065,54.763,40.437,54.918,40.873,54.918L44.320,54.918C44.754,54.918,45.135,54.763,45.461,54.452C45.787,54.142,45.950,53.769,45.950,53.334ZM56.432,35.632L62.394,35.632L62.394,60.368L56.432,60.368ZM85.500,43.365L85.500,53.800C85.500,55.756,84.964,57.340,83.893,58.551C82.821,59.762,81.369,60.368,79.537,60.368L73.714,60.368C71.633,60.368,69.979,59.802,68.753,58.668C67.526,57.534,66.913,55.912,66.913,53.800L66.913,43.365L72.876,43.365L72.876,53.334C72.876,53.769,73.031,54.142,73.342,54.452C73.652,54.763,74.024,54.918,74.460,54.918L77.953,54.918C78.388,54.918,78.761,54.763,79.071,54.452C79.381,54.142,79.537,53.769,79.537,53.334L79.537,43.365Z" style="fill: rgb(255, 255, 255); fill-opacity: 1;"/></g></g></g></svg>