<svg xmlns:xlink="http://www.w3.org/1999/xlink" width="96" xmlns="http://www.w3.org/2000/svg" height="96" id="screenshot-7d7d16fc-e83f-8046-8002-95e5d899fc77" viewBox="0 0 96 96" style="-webkit-print-color-adjust: exact;" fill="none" version="1.1"><g id="shape-7d7d16fc-e83f-8046-8002-95e5d899fc77" rx="0" ry="0" style="fill: rgb(0, 0, 0);"><g id="shape-7d7d16fc-e83f-8046-8002-95e5dc8be3e8"><g class="fills" id="fills-7d7d16fc-e83f-8046-8002-95e5dc8be3e8"><rect rx="0" ry="0" x="0" y="0" transform="matrix(1.000000, 0.000000, 0.000000, 1.000000, 0.000000, 0.000000)" width="96.00000000000011" height="95.99999999999955"/></g></g><g id="shape-7d7d16fc-e83f-8046-8002-95e5d89b04d1"><g class="fills" id="fills-7d7d16fc-e83f-8046-8002-95e5d89b04d1"><path rx="0" ry="0" d="M22.324,37.736C20.278,37.736,18.199,38.646,15.535,40.692L15.535,38.256L10.500,38.256L10.500,57.744L15.860,57.744L15.860,45.629C18.199,43.778,19.270,43.192,20.147,43.192C21.186,43.192,21.869,43.842,21.869,45.466L21.869,57.744L27.227,57.744L27.227,45.596C29.566,43.778,30.606,43.192,31.515,43.192C32.555,43.192,33.236,43.842,33.236,45.466L33.236,57.744L38.595,57.744L38.595,43.583C38.595,39.198,36.094,37.736,33.690,37.736C31.644,37.736,29.565,38.581,26.836,40.660C25.961,38.482,24.045,37.736,22.324,37.736ZZM49.478,37.736C44.151,37.736,39.734,42.316,39.734,48.000C39.734,53.684,44.151,58.264,49.478,58.264C52.109,58.264,54.383,57.290,56.138,55.178L56.138,57.744L61.238,57.744L61.238,38.256L56.138,38.256L56.138,40.822C54.383,38.710,52.109,37.736,49.478,37.736ZZM62.179,38.256C64.388,41.699,66.889,44.785,69.812,47.871C66.889,51.085,64.388,54.431,62.179,57.744L68.642,57.744C70.168,55.275,71.890,53.034,73.872,50.923C75.821,53.034,77.444,55.275,78.972,57.744L85.500,57.744C83.259,54.334,80.823,51.085,77.899,47.871C80.790,44.785,83.259,41.602,85.500,38.256L79.102,38.256C77.511,40.725,75.789,42.803,73.872,44.850C71.923,42.803,70.202,40.725,68.642,38.256L62.179,38.256ZZM50.289,42.251C53.471,42.251,56.038,44.817,56.038,48.000C56.038,51.182,53.471,53.749,50.289,53.749C47.106,53.749,44.540,51.184,44.540,48.000C44.540,44.816,47.106,42.251,50.289,42.251ZZM50.289,43.550C47.853,43.550,45.871,45.531,45.871,48.000C45.871,50.469,47.853,52.450,50.289,52.450C52.725,52.450,54.706,50.469,54.706,48.000C54.706,45.531,52.725,43.550,50.289,43.550ZZ" style="fill: rgb(255, 255, 255);"/></g><g id="strokes-7d7d16fc-e83f-8046-8002-95e5d89b04d1" class="strokes"><g class="stroke-shape"><path rx="0" ry="0" d="M22.324,37.736C20.278,37.736,18.199,38.646,15.535,40.692L15.535,38.256L10.500,38.256L10.500,57.744L15.860,57.744L15.860,45.629C18.199,43.778,19.270,43.192,20.147,43.192C21.186,43.192,21.869,43.842,21.869,45.466L21.869,57.744L27.227,57.744L27.227,45.596C29.566,43.778,30.606,43.192,31.515,43.192C32.555,43.192,33.236,43.842,33.236,45.466L33.236,57.744L38.595,57.744L38.595,43.583C38.595,39.198,36.094,37.736,33.690,37.736C31.644,37.736,29.565,38.581,26.836,40.660C25.961,38.482,24.045,37.736,22.324,37.736ZZM49.478,37.736C44.151,37.736,39.734,42.316,39.734,48.000C39.734,53.684,44.151,58.264,49.478,58.264C52.109,58.264,54.383,57.290,56.138,55.178L56.138,57.744L61.238,57.744L61.238,38.256L56.138,38.256L56.138,40.822C54.383,38.710,52.109,37.736,49.478,37.736ZZM62.179,38.256C64.388,41.699,66.889,44.785,69.812,47.871C66.889,51.085,64.388,54.431,62.179,57.744L68.642,57.744C70.168,55.275,71.890,53.034,73.872,50.923C75.821,53.034,77.444,55.275,78.972,57.744L85.500,57.744C83.259,54.334,80.823,51.085,77.899,47.871C80.790,44.785,83.259,41.602,85.500,38.256L79.102,38.256C77.511,40.725,75.789,42.803,73.872,44.850C71.923,42.803,70.202,40.725,68.642,38.256L62.179,38.256ZZM50.289,42.251C53.471,42.251,56.038,44.817,56.038,48.000C56.038,51.182,53.471,53.749,50.289,53.749C47.106,53.749,44.540,51.184,44.540,48.000C44.540,44.816,47.106,42.251,50.289,42.251ZZM50.289,43.550C47.853,43.550,45.871,45.531,45.871,48.000C45.871,50.469,47.853,52.450,50.289,52.450C52.725,52.450,54.706,50.469,54.706,48.000C54.706,45.531,52.725,43.550,50.289,43.550ZZ" style="fill: none; stroke-width: 1.66668;"/></g></g></g></g></svg>