<svg xmlns:xlink="http://www.w3.org/1999/xlink" width="96" xmlns="http://www.w3.org/2000/svg" height="96" id="screenshot-2972c73a-5014-8016-8002-95e3786b6ba9" viewBox="0 0 96 96" style="-webkit-print-color-adjust: exact;" fill="none" version="1.1"><g id="shape-2972c73a-5014-8016-8002-95e3786b6ba9" rx="0" ry="0" style="fill: rgb(0, 0, 0);"><g id="shape-2972c73a-5014-8016-8002-95e3786bc3e6"><g class="fills" id="fills-2972c73a-5014-8016-8002-95e3786bc3e6"><rect rx="0" ry="0" x="0" y="0" transform="matrix(1.000000, 0.000000, 0.000000, 1.000000, 0.000000, 0.000000)" width="96.00000000000028" height="96" style="fill: rgb(0, 0, 0); fill-opacity: 1;"/></g></g><g id="shape-e2f5b22b-19c3-807c-8002-9820621a5407" rx="0" ry="0"><g id="shape-2972c73a-5014-8016-8002-95e3786c56d6"><g class="fills" id="fills-2972c73a-5014-8016-8002-95e3786c56d6"><path rx="0" ry="0" d="M27.403,10.500L27.403,85.500L30.090,85.276L34.791,84.828L41.955,84.381L42.179,68.485L42.179,52.590L43.299,55.724L43.746,57.067L45.537,20.127L44.866,18.336L42.179,10.724L42.179,10.500L27.403,10.500ZZM53.821,10.500L53.821,43.634L52.478,39.828L50.687,76.769L53.373,84.157L55.612,84.381C59.953,84.587,64.285,84.961,68.597,85.500L68.597,10.500L53.821,10.500ZZ" style="fill: rgb(255, 255, 255);"/></g></g><g id="shape-2972c73a-5014-8016-8002-95e3786cd905"><defs><linearGradient x1="209" y1="271" x2="297" y2="241" id="rumext-id-22-a" gradientUnits="userSpaceOnUse" gradientTransform="matrix(0.223881, 0.000000, 0.000000, 0.223881, -8.641791, -9.425373)"><stop offset="0" stop-color="#b20710"/><stop offset=".5"/><stop offset="1" stop-color="#b20710"/></linearGradient><linearGradient id="fill-color-gradient_rumext-id-22_0" x1="1.0113845615162123" y1="-0.003266046283186288" x2="-0.013009273716695557" y2="0.997461875359132" gradientTransform="matrix(1.000000, 0.000000, 0.000000, 1.000000, 0.000000, 0.000000)"><stop offset="0" stop-color="#000000" stop-opacity="0.375"/><stop offset="1" stop-color="#B1B2B5" stop-opacity="0"/></linearGradient><pattern patternUnits="userSpaceOnUse" x="27.40298507462677" y="10.5" height="75" width="41.1940298507468" data-loading="false" patternTransform="matrix(1.000000, 0.000000, 0.000000, 1.000000, 0.000000, 0.000000)" id="fill-0-rumext-id-22"><g><rect width="41.1940298507468" height="75" style="fill: url(&quot;#fill-color-gradient_rumext-id-22_0&quot;);"/></g></pattern></defs><g class="fills" id="fills-2972c73a-5014-8016-8002-95e3786cd905"><path rx="0" ry="0" d="M27.403,10.500C27.403,10.500,33.175,31.314,37.504,46.706C40.101,55.941,42.179,63.224,42.179,62.888L42.179,52.590L43.299,55.724L53.373,84.157L55.612,84.381C59.953,84.586,64.285,84.960,68.597,85.500L53.821,32.664L53.821,43.634L52.478,39.828L44.866,18.336L42.179,10.724L41.955,10.500L27.403,10.500ZL27.403,10.500ZL27.403,10.500Z" fill="url(#fill-0-rumext-id-22)"/></g></g><g id="shape-2972c73a-5014-8016-8002-95e3786d348d"><g class="fills" id="fills-2972c73a-5014-8016-8002-95e3786d348d"><path rx="0" ry="0" d="M27.403,10.500L42.179,52.590L43.299,55.724L53.373,84.157L55.612,84.381C59.953,84.587,64.285,84.961,68.597,85.500L53.821,43.634L52.478,39.828L44.866,18.336L42.179,10.724L42.179,10.500L27.403,10.500ZZ" style="fill: rgb(255, 255, 255);"/></g></g></g></g></svg>