<svg xmlns:xlink="http://www.w3.org/1999/xlink" width="96" xmlns="http://www.w3.org/2000/svg" height="96" id="screenshot-7d7d16fc-e83f-8046-8002-95eab73672c0" viewBox="0 0 96 96" style="-webkit-print-color-adjust: exact;" fill="none" version="1.1"><g id="shape-7d7d16fc-e83f-8046-8002-95eab73672c0" rx="0" ry="0" style="fill: rgb(0, 0, 0);"><g id="shape-7d7d16fc-e83f-8046-8002-95eaefcd9d19"><g class="fills" id="fills-7d7d16fc-e83f-8046-8002-95eaefcd9d19"><path rx="0" ry="0" d="M0.000,0.000L96.000,0.000L96.000,96.000L0.000,96.000L0.000,0.000Z"/></g></g><g id="shape-7d7d16fc-e83f-8046-8002-95eab7383391"><g class="fills" id="fills-7d7d16fc-e83f-8046-8002-95eab7383391"><path rx="0" ry="0" d="M15.703,41.898C12.833,41.898,10.500,44.231,10.500,47.101L10.500,59.137L12.967,59.137L12.967,52.457L13.874,53.413L17.500,51.987C19.564,51.181,20.907,49.317,20.907,47.102C20.907,44.232,18.574,41.898,15.703,41.898ZZM16.627,49.805L12.968,51.231L12.968,47.102C12.968,45.440,14.210,44.248,15.704,44.248C17.198,44.248,18.440,45.457,18.440,47.102C18.440,48.143,17.937,49.284,16.627,49.805ZZM59.247,41.898C56.377,41.898,54.044,44.231,54.044,47.101C54.044,49.972,56.377,52.305,59.247,52.305C62.117,52.305,64.450,49.972,64.450,47.101C64.450,44.231,62.117,41.898,59.247,41.898ZZM59.247,49.955C57.669,49.955,56.511,48.697,56.511,47.102C56.511,45.507,57.703,44.248,59.247,44.248C60.825,44.248,61.983,45.507,61.983,47.102C61.983,48.697,60.825,49.955,59.247,49.955ZZM70.511,44.248C71.584,44.248,72.457,44.836,72.911,45.709L74.841,44.232C73.901,42.838,72.323,41.915,70.511,41.915C67.640,41.915,65.307,44.248,65.307,47.119C65.307,49.989,67.640,52.322,70.511,52.322C72.307,52.322,73.901,51.399,74.841,50.006L72.911,48.528C72.457,49.402,71.584,49.989,70.511,49.989C68.932,49.989,67.774,48.730,67.774,47.135C67.774,45.541,68.966,44.248,70.511,44.248ZZM49.461,44.248C50.535,44.248,51.408,44.836,51.861,45.709L53.792,44.232C52.852,42.838,51.273,41.915,49.461,41.915C46.590,41.915,44.257,44.248,44.257,47.119C44.257,49.989,46.590,52.322,49.461,52.322C51.257,52.322,52.852,51.399,53.792,50.006L51.861,48.528C51.408,49.402,50.535,49.989,49.461,49.989C47.883,49.989,46.724,48.730,46.724,47.135C46.724,45.541,47.900,44.248,49.461,44.248ZZM40.832,43.140C39.993,42.267,38.885,41.898,37.727,41.898C35.309,41.898,32.859,44.098,32.859,47.102C32.859,50.106,35.309,52.305,37.727,52.305C38.885,52.305,39.993,51.936,40.832,51.064L40.832,52.004L43.300,52.004L43.300,42.217L40.832,42.217ZM38.096,49.955C36.519,49.955,35.327,48.697,35.327,47.102C35.327,45.507,36.552,44.248,38.096,44.248C39.674,44.248,40.832,45.507,40.832,47.102C40.832,48.697,39.674,49.955,38.096,49.955ZZM81.707,46.749L80.599,46.749L84.879,42.200L81.707,42.200L78.248,45.927L78.248,36.863L75.781,36.863L75.781,52.004L78.248,52.004L78.248,49.218L79.608,47.774L82.512,52.004L85.500,52.004ZM26.917,41.898C24.046,41.898,21.713,44.231,21.713,47.101C21.713,49.972,24.046,52.305,26.917,52.305C28.629,52.305,30.240,51.483,31.164,50.207L29.183,48.831C28.948,49.217,28.193,49.955,26.917,49.955C25.742,49.955,24.785,49.250,24.382,48.226L31.886,48.226C31.970,47.857,32.004,47.488,32.004,47.101C32.020,44.232,29.787,41.898,26.917,41.898ZZM24.399,45.977C24.802,44.953,25.759,44.248,26.917,44.248C28.092,44.248,28.982,44.953,29.351,45.977Z" style="fill: rgb(255, 255, 255); fill-opacity: 1;"/></g></g></g></svg>