<svg xmlns:xlink="http://www.w3.org/1999/xlink" width="96" xmlns="http://www.w3.org/2000/svg" height="96" id="screenshot-7d7d16fc-e83f-8046-8002-95e82ad66960" viewBox="0 0 96 96" style="-webkit-print-color-adjust: exact;" fill="none" version="1.1"><g id="shape-7d7d16fc-e83f-8046-8002-95e82ad66960" rx="0" ry="0" style="fill: rgb(0, 0, 0);"><g id="shape-7d7d16fc-e83f-8046-8002-95e83cfe49f1"><g class="fills" id="fills-7d7d16fc-e83f-8046-8002-95e83cfe49f1"><rect rx="0" ry="0" x="0" y="0" transform="matrix(1.000000, 0.000000, 0.000000, 1.000000, 0.000000, 0.000000)" width="96.00000000000064" height="95.99999999999989"/></g></g><g id="shape-7d7d16fc-e83f-8046-8002-95e82ad72b5a"><g class="fills" id="fills-7d7d16fc-e83f-8046-8002-95e82ad72b5a"><path class="st0" rx="0" ry="0" d="M65.901,28.513L71.310,19.117C72.886,16.367,71.959,12.843,69.208,11.267C66.457,9.691,62.934,10.618,61.357,13.369L55.918,22.764C44.359,19.117,31.409,23.846,25.104,34.787C21.086,41.741,20.591,49.746,23.033,56.762L33.047,39.392C33.047,39.392,33.047,39.392,33.047,39.392C35.334,35.405,39.074,32.562,43.524,31.357C47.975,30.151,52.611,30.769,56.598,33.087C64.819,37.847,67.663,48.417,62.903,56.639C58.143,64.860,47.604,67.703,39.352,62.944L45.100,52.991C47.851,54.568,51.375,53.641,52.951,50.890C54.527,48.139,53.600,44.616,50.849,43.039C48.098,41.463,44.575,42.390,42.999,45.141L24.702,76.883C23.126,79.633,24.053,83.157,26.803,84.733C29.554,86.309,33.078,85.382,34.654,82.631L40.093,73.236C51.653,76.883,64.603,72.154,70.908,61.213C77.213,50.303,74.833,36.734,65.901,28.513ZZ" style="fill: rgb(255, 255, 255);"/></g></g></g></svg>