<svg xmlns:xlink="http://www.w3.org/1999/xlink" width="96" xmlns="http://www.w3.org/2000/svg" height="96" id="screenshot-7d7d16fc-e83f-8046-8002-95e9f4feabdb" viewBox="0 0 96 96" style="-webkit-print-color-adjust: exact;" fill="none" version="1.1"><g id="shape-7d7d16fc-e83f-8046-8002-95e9f4feabdb" rx="0" ry="0" style="fill: rgb(0, 0, 0);"><g id="shape-7d7d16fc-e83f-8046-8002-95ea02e2f3e9"><g class="fills" id="fills-7d7d16fc-e83f-8046-8002-95ea02e2f3e9"><rect rx="0" ry="0" x="0" y="0" transform="matrix(1.000000, 0.000000, 0.000000, 1.000000, 0.000000, 0.000000)" width="95.99999999999977" height="96.00000000000023"/></g></g><g id="shape-7d7d16fc-e83f-8046-8002-95e9f4ff052b" rx="0" ry="0" style="fill: rgb(0, 0, 0);"><g id="shape-7d7d16fc-e83f-8046-8002-95e9f4ff052c"><g class="fills" id="fills-7d7d16fc-e83f-8046-8002-95e9f4ff052c"><path fill-rule="evenodd" rx="0" ry="0" d="M85.500,35.842L78.452,35.842L71.404,47.994L78.452,60.146L85.494,60.146L78.452,48.000Z" style="fill: rgb(255, 255, 255); fill-opacity: 1;"/></g></g><g id="shape-7d7d16fc-e83f-8046-8002-95e9f4ff666c"><defs><radialGradient cx="3496.9575" cy="388.73517" r="722.62866" id="rumext-id-65-a" gradientTransform="matrix(0.024303, 0.000000, 0.000000, 0.024303, 10.500000, 35.842233) scale(.78082978 1.2806889)" gradientUnits="userSpaceOnUse"><stop offset="0" stop-color="#f9be03"/><stop offset="1" stop-color="#cc7c19"/></radialGradient><linearGradient id="fill-color-gradient_rumext-id-65_0" x1="0.9980366180411263" y1="0.49960752075837395" x2="0.032889563757847275" y2="0.5034495885496464" gradientTransform="matrix(1.000000, 0.000000, 0.000000, 1.000000, 0.000000, 0.000000)"><stop offset="0" stop-color="#000000" stop-opacity="1"/><stop offset="1" stop-color="#ffffff" stop-opacity="0.9875"/></linearGradient><pattern patternUnits="userSpaceOnUse" x="63.627196962890395" y="35.842232666015775" height="24.315535480957124" width="14.82506411132806" data-loading="false" patternTransform="matrix(1.000000, 0.000000, 0.000000, 1.000000, 0.000000, 0.000000)" id="fill-0-rumext-id-65"><g><rect width="14.82506411132806" height="24.315535480957124" style="fill: url(&quot;#fill-color-gradient_rumext-id-65_0&quot;);"/></g></pattern></defs><g class="fills" id="fills-7d7d16fc-e83f-8046-8002-95e9f4ff666c"><path rx="0" ry="0" d="M63.627,35.842L70.675,35.842L78.452,48.000L70.675,60.158L63.627,60.158L71.404,48.000L63.627,35.842Z" fill="url(#fill-0-rumext-id-65)"/></g></g><g id="shape-7d7d16fc-e83f-8046-8002-95e9f4ff666d"><g class="fills" id="fills-7d7d16fc-e83f-8046-8002-95e9f4ff666d"><path fill-rule="evenodd" rx="0" ry="0" d="M61.196,60.146L47.171,60.146L47.171,35.842L61.196,35.842L61.196,40.065L52.334,40.065L52.334,45.401L60.579,45.401L60.579,49.623L52.334,49.623L52.334,55.890L61.196,55.890ZM29.731,60.146L29.731,35.842L34.884,35.842L34.884,55.890L44.742,55.890L44.742,60.146Z" style="fill: rgb(255, 255, 255); fill-opacity: 1;"/></g></g><g id="shape-7d7d16fc-e83f-8046-8002-95e9f4ffeff2"><g class="fills" id="fills-7d7d16fc-e83f-8046-8002-95e9f4ffeff2"><path fill-rule="evenodd" rx="0" ry="0" d="M24.838,49.424C23.203,50.809,20.878,51.501,17.864,51.501L15.653,51.501L15.653,60.146L10.500,60.146L10.500,47.273L17.548,47.282C21.863,47.231,22.089,44.588,22.089,43.673C22.089,42.823,22.089,40.106,18.253,40.064L10.500,40.064L10.500,35.842L18.263,35.842C21.211,35.842,23.452,36.477,24.987,37.746C26.522,39.015,27.290,40.907,27.290,43.423C27.290,46.038,26.472,48.038,24.838,49.424ZZ" style="fill: rgb(255, 255, 255); fill-opacity: 1;"/></g></g><g id="shape-7d7d16fc-e83f-8046-8002-95e9f5002143"><g class="fills" id="fills-7d7d16fc-e83f-8046-8002-95e9f5002143"><path fill-rule="evenodd" rx="0" ry="0" d="M10.500,38.516L15.657,38.516L15.657,48.942L10.500,48.942Z" style="fill: rgb(255, 255, 255); fill-opacity: 1;"/></g></g></g></g></svg>