<svg xmlns:xlink="http://www.w3.org/1999/xlink" width="96" xmlns="http://www.w3.org/2000/svg" height="96" id="screenshot-7d7d16fc-e83f-8046-8002-95e8b64d02f5" viewBox="-0 0 96 96" style="-webkit-print-color-adjust: exact;" fill="none" version="1.1"><g id="shape-7d7d16fc-e83f-8046-8002-95e8b64d02f5" rx="0" ry="0" style="fill: rgb(0, 0, 0);"><g id="shape-7d7d16fc-e83f-8046-8002-95e9784352c3"><g class="fills" id="fills-7d7d16fc-e83f-8046-8002-95e9784352c3"><rect rx="0" ry="0" x="-5.684341886080802e-14" y="0" transform="matrix(1.000000, 0.000000, 0.000000, 1.000000, 0.000000, 0.000000)" width="96.00000000000017" height="95.99999999999955"/></g></g><g id="shape-7d7d16fc-e83f-8046-8002-95e8b64d6cf4" rx="0" ry="0" style="fill: rgb(0, 0, 0);"><g id="shape-7d7d16fc-e83f-8046-8002-95e93314656c" rx="0" ry="0"><g id="shape-7d7d16fc-e83f-8046-8002-95e8b64e0806"><g class="fills" id="fills-7d7d16fc-e83f-8046-8002-95e8b64e0806"><path rx="0" ry="0" d="M46.998,81.546L46.998,81.546ZC47.070,81.393,47.197,81.342,47.305,81.359C47.829,81.342,48.335,81.342,48.859,81.359C48.967,81.359,49.094,81.393,49.166,81.478L49.166,81.546L46.998,81.546ZZ" style="fill: rgb(255, 255, 255);"/></g></g><g id="shape-7d7d16fc-e83f-8046-8002-95e8b64eb739"><g class="fills" id="fills-7d7d16fc-e83f-8046-8002-95e8b64eb739"><path rx="0" ry="0" d="M49.166,81.478C48.443,81.461,47.721,81.461,46.998,81.478C46.004,81.427,45.011,81.393,44.017,81.325C41.379,81.138,38.759,80.765,36.194,80.205C27.322,78.271,19.535,74.385,12.742,68.735C12.109,68.209,11.513,67.666,10.899,67.123C10.754,67.004,10.628,66.834,10.556,66.665C10.447,66.427,10.501,66.172,10.682,65.986C10.863,65.799,11.152,65.731,11.405,65.833C11.567,65.901,11.730,65.969,11.875,66.054C18.361,69.821,25.443,72.570,32.869,74.198C35.362,74.741,37.874,75.166,40.403,75.471C44.035,75.895,47.703,76.048,51.352,75.929C53.322,75.878,55.273,75.709,57.224,75.471C61.777,74.928,66.276,73.961,70.630,72.603C72.925,71.891,75.165,71.076,77.352,70.126C77.677,69.956,78.074,69.906,78.436,69.990C79.032,70.126,79.393,70.703,79.249,71.263C79.231,71.331,79.194,71.416,79.158,71.484C79.014,71.738,78.815,71.959,78.562,72.128C76.484,73.655,74.244,74.996,71.877,76.116C67.414,78.237,62.644,79.747,57.730,80.612C54.893,81.088,52.039,81.376,49.166,81.478ZZ" style="fill: rgb(255, 255, 255);"/></g></g><g id="shape-7d7d16fc-e83f-8046-8002-95e8b65072ef"><g class="fills" id="fills-7d7d16fc-e83f-8046-8002-95e8b65072ef"><path rx="0" ry="0" d="M80.224,64.934C81.417,64.968,82.591,65.036,83.747,65.324C84.073,65.409,84.380,65.511,84.687,65.646C85.103,65.799,85.374,66.172,85.428,66.580C85.500,67.055,85.518,67.547,85.482,68.039C85.247,70.941,84.289,73.740,82.700,76.235C82.121,77.134,81.417,77.948,80.604,78.661C80.441,78.814,80.242,78.933,80.026,79.000C79.682,79.085,79.465,78.916,79.447,78.593C79.465,78.424,79.502,78.254,79.574,78.084C80.206,76.489,80.820,74.911,81.308,73.265C81.597,72.366,81.796,71.450,81.923,70.516C81.959,70.177,81.977,69.838,81.941,69.498C81.923,68.921,81.525,68.429,80.929,68.260C80.369,68.090,79.791,67.988,79.194,67.954C77.532,67.886,75.870,67.954,74.226,68.158L72.040,68.412C71.805,68.429,71.588,68.412,71.461,68.209C71.335,68.005,71.389,67.801,71.516,67.598C71.660,67.411,71.841,67.241,72.058,67.123C73.395,66.223,74.894,65.680,76.484,65.324C77.713,65.087,78.960,64.968,80.224,64.934ZZ" style="fill: rgb(255, 255, 255);"/></g></g></g><g id="shape-7d7d16fc-e83f-8046-8002-95e90e209026" rx="0" ry="0"><g id="shape-7d7d16fc-e83f-8046-8002-95e8b64fb92e"><g class="fills" id="fills-7d7d16fc-e83f-8046-8002-95e8b64fb92e"><path rx="0" ry="0" d="M21.510,57.921C21.618,57.582,21.727,57.260,21.835,56.920C22.666,54.290,23.497,51.677,24.328,49.047L24.437,48.742C24.527,48.436,24.834,48.250,25.160,48.250L27.906,48.250C28.592,48.250,28.737,48.436,28.502,49.047L27.418,51.745C26.207,54.697,24.997,57.667,23.786,60.619C23.750,60.721,23.696,60.823,23.660,60.925C23.533,61.281,23.154,61.519,22.757,61.485C21.962,61.468,21.167,61.468,20.372,61.485C19.812,61.502,19.486,61.264,19.288,60.789C18.836,59.669,18.366,58.532,17.914,57.412C16.830,54.748,15.728,52.084,14.644,49.403C14.536,49.200,14.464,48.962,14.409,48.742C14.355,48.402,14.482,48.233,14.843,48.233C15.873,48.216,16.903,48.233,17.914,48.233C18.348,48.233,18.547,48.504,18.655,48.860C18.854,49.505,19.053,50.167,19.270,50.812C20.010,53.170,20.733,55.546,21.510,57.921ZC21.456,57.921,21.474,57.921,21.510,57.921ZZ" style="fill: rgb(255, 255, 255);"/></g></g><g id="shape-7d7d16fc-e83f-8046-8002-95e8b65072f0"><g class="fills" id="fills-7d7d16fc-e83f-8046-8002-95e8b65072f0"><path rx="0" ry="0" d="M34.302,54.867L34.302,60.976C34.266,61.315,34.103,61.468,33.742,61.485C32.766,61.502,31.808,61.502,30.833,61.485C30.471,61.485,30.309,61.315,30.273,60.993C30.255,60.891,30.255,60.772,30.255,60.670L30.255,48.928C30.273,48.402,30.417,48.250,30.977,48.250L33.579,48.250C34.139,48.250,34.302,48.402,34.302,48.928L34.302,54.867ZL34.302,54.867ZZ" style="fill: rgb(255, 255, 255);"/></g></g><g id="shape-7d7d16fc-e83f-8046-8002-95e8b650f265"><g class="fills" id="fills-7d7d16fc-e83f-8046-8002-95e8b650f265"><path rx="0" ry="0" d="M32.296,42.158C32.658,42.124,33.019,42.192,33.362,42.328C34.067,42.582,34.555,43.193,34.591,43.906C34.735,45.450,33.633,46.230,32.170,46.196C31.971,46.196,31.772,46.162,31.574,46.129C30.453,45.874,29.875,45.060,29.984,43.889C30.074,42.955,30.851,42.260,31.917,42.175C32.043,42.158,32.170,42.141,32.296,42.158ZZ" style="fill: rgb(255, 255, 255);"/></g></g><g id="shape-7d7d16fc-e83f-8046-8002-95e8b651dc67"><g class="fills" id="fills-7d7d16fc-e83f-8046-8002-95e8b651dc67"><path rx="0" ry="0" d="M81.585,53.815L81.585,53.815ZC81.512,53.815,81.476,53.713,81.512,53.628L81.512,53.493C81.512,53.493,81.512,53.476,81.530,53.476L81.512,53.476L81.512,53.306L81.548,53.306C81.548,53.289,81.530,53.289,81.530,53.272C81.494,52.950,81.422,52.627,81.332,52.322C80.663,50.082,79.164,48.606,76.724,48.029C75.586,47.774,74.430,47.740,73.274,47.910C70.834,48.250,69.082,49.471,68.233,51.643C67.402,53.713,67.420,55.987,68.251,58.057C68.973,59.941,70.419,61.128,72.497,61.621C73.599,61.875,74.755,61.943,75.893,61.790C79.688,61.366,81.259,58.668,81.512,56.326L81.494,56.326L81.494,56.089C81.476,55.987,81.458,55.902,81.567,55.834L81.567,55.868C81.567,55.851,81.585,55.817,81.603,55.800L81.585,53.815ZC81.603,53.832,81.585,53.832,81.585,53.815ZZM77.248,57.039C77.140,57.395,76.977,57.718,76.743,58.023C76.345,58.549,75.713,58.889,75.026,58.940C74.683,58.973,74.340,58.973,73.996,58.906C73.237,58.770,72.605,58.295,72.298,57.633C72.027,57.107,71.864,56.530,71.810,55.953C71.720,54.952,71.702,53.951,71.955,52.967C72.045,52.576,72.226,52.186,72.442,51.847C72.840,51.236,73.526,50.846,74.285,50.795C74.629,50.761,74.972,50.761,75.315,50.829C76.038,50.964,76.634,51.406,76.959,52.033C77.266,52.627,77.447,53.289,77.483,53.951C77.501,54.256,77.519,54.562,77.501,54.867C77.556,55.614,77.465,56.343,77.248,57.039ZZ" style="fill: rgb(255, 255, 255);"/></g></g><g id="shape-7d7d16fc-e83f-8046-8002-95e8b652531a"><g class="fills" id="fills-7d7d16fc-e83f-8046-8002-95e8b652531a"><path rx="0" ry="0" d="M49.912,42.277L47.401,42.277C46.714,42.277,46.588,42.395,46.588,43.040L46.588,48.538C46.588,48.657,46.642,48.776,46.552,48.894C46.389,48.877,46.299,48.776,46.172,48.708C44.293,47.673,42.324,47.486,40.336,48.351C38.945,48.962,38.078,50.065,37.518,51.372C36.976,52.627,36.849,53.951,36.885,55.291C36.885,56.547,37.193,57.786,37.789,58.906C38.475,60.144,39.469,61.095,40.914,61.502C42.884,62.079,44.727,61.790,46.407,60.619C46.534,60.552,46.606,60.433,46.768,60.399C46.859,60.585,46.931,60.789,46.967,60.993C47.039,61.264,47.292,61.451,47.599,61.451L48.033,61.451C48.684,61.451,49.316,61.468,49.948,61.451C50.454,61.451,50.599,61.298,50.617,60.806L50.617,42.922C50.599,42.395,50.454,42.277,49.912,42.277ZZM46.606,54.765L46.606,57.854C46.642,58.057,46.515,58.244,46.317,58.329C45.449,58.787,44.456,58.973,43.480,58.838C42.649,58.753,41.926,58.278,41.547,57.582C41.258,57.039,41.095,56.462,41.041,55.868C40.896,54.799,40.987,53.713,41.258,52.678C41.348,52.390,41.457,52.118,41.619,51.847C41.999,51.185,42.721,50.761,43.516,50.710C44.474,50.625,45.431,50.795,46.299,51.168C46.515,51.236,46.642,51.440,46.624,51.660C46.588,52.712,46.606,53.730,46.606,54.765ZL46.606,54.765ZZ" style="fill: rgb(255, 255, 255);"/></g></g><g id="shape-7d7d16fc-e83f-8046-8002-95e8b6533785"><g class="fills" id="fills-7d7d16fc-e83f-8046-8002-95e8b6533785"><path rx="0" ry="0" d="M60.825,56.106C61.873,56.038,62.921,55.851,63.860,55.376C64.818,54.935,65.486,54.104,65.685,53.119C65.812,52.509,65.812,51.864,65.667,51.253C65.288,49.726,64.258,48.776,62.704,48.283C61.837,48.029,60.915,47.927,60.012,47.961C56.977,48.029,54.664,49.471,53.724,52.322C53.092,54.205,53.182,56.123,53.797,58.006C54.429,59.941,55.874,61.111,57.934,61.637C58.819,61.841,59.741,61.926,60.644,61.892C61.963,61.875,63.282,61.637,64.529,61.196C65.053,61.010,65.179,60.840,65.179,60.314L65.179,59.092C65.161,58.600,64.944,58.430,64.420,58.549C64.023,58.651,63.644,58.736,63.246,58.821C62.035,59.092,60.771,59.143,59.542,58.940C58.314,58.719,57.482,58.057,57.157,56.903C57.067,56.564,56.995,56.225,56.959,55.868C57.049,55.868,57.139,55.868,57.211,55.902C58.404,56.106,59.614,56.191,60.825,56.106ZZM57.049,53.391C57.175,52.729,57.338,52.084,57.772,51.541C58.440,50.710,59.361,50.472,60.409,50.574C60.500,50.574,60.572,50.608,60.662,50.608C61.927,50.795,62.234,51.745,61.999,52.661C61.819,53.340,61.222,53.595,60.554,53.713C60.193,53.781,59.813,53.815,59.434,53.798C58.693,53.781,57.970,53.730,57.248,53.628C57.085,53.612,57.013,53.544,57.049,53.391ZL57.049,53.391ZZ" style="fill: rgb(255, 255, 255);"/></g></g></g><g id="shape-7d7d16fc-e83f-8046-8002-95e9074027b1" rx="0" ry="0"><g id="shape-7d7d16fc-e83f-8046-8002-95e8b64f116e"><g class="fills" id="fills-7d7d16fc-e83f-8046-8002-95e8b64f116e"><path rx="0" ry="0" d="M59.505,21.771C59.957,21.516,60.427,21.245,60.915,21.007C62.179,20.396,63.589,20.091,65.016,20.159C66.046,20.210,66.985,20.481,67.708,21.194C68.395,21.856,68.648,22.670,68.720,23.553C68.738,23.739,68.738,23.926,68.738,24.129L68.738,32.919C68.738,33.683,68.629,33.784,67.816,33.784L65.612,33.784C65.468,33.784,65.323,33.784,65.179,33.767C64.962,33.750,64.781,33.581,64.745,33.377C64.709,33.190,64.709,33.004,64.709,32.817L64.709,24.961C64.727,24.638,64.691,24.333,64.600,24.028C64.456,23.502,63.950,23.128,63.372,23.094C62.306,23.026,61.240,23.230,60.264,23.654C60.120,23.688,60.029,23.824,60.047,23.960L60.047,32.885C60.047,33.055,60.047,33.207,60.011,33.377C60.011,33.615,59.812,33.784,59.560,33.784C59.560,33.784,59.560,33.784,59.560,33.784C59.288,33.801,59.017,33.801,58.728,33.801L56.813,33.801C56.145,33.801,56.000,33.649,56.000,33.021L56.000,24.995C56.000,24.706,55.982,24.401,55.910,24.112C55.783,23.536,55.259,23.128,54.645,23.094C53.561,23.026,52.459,23.230,51.483,23.671C51.339,23.705,51.248,23.858,51.285,23.994L51.285,33.038C51.285,33.666,51.140,33.801,50.472,33.801L48.050,33.801C47.418,33.801,47.255,33.632,47.255,33.055L47.255,21.279C47.255,21.143,47.274,21.007,47.310,20.872C47.382,20.668,47.599,20.549,47.816,20.549L50.074,20.549C50.399,20.549,50.598,20.736,50.706,21.024C50.797,21.262,50.851,21.482,50.941,21.737C51.122,21.737,51.230,21.618,51.357,21.550C52.351,20.973,53.398,20.481,54.573,20.278C55.476,20.108,56.380,20.108,57.283,20.278C58.132,20.447,58.891,20.922,59.379,21.601C59.415,21.652,59.451,21.686,59.505,21.771ZC59.469,21.737,59.487,21.737,59.505,21.771ZZ" style="fill: rgb(255, 255, 255);"/></g></g><g id="shape-7d7d16fc-e83f-8046-8002-95e8b64ff8cf"><g class="fills" id="fills-7d7d16fc-e83f-8046-8002-95e8b64ff8cf"><path rx="0" ry="0" d="M32.801,22.416C32.928,22.382,33.036,22.314,33.109,22.212C33.434,21.907,33.777,21.618,34.138,21.347C35.078,20.668,36.252,20.329,37.427,20.413C37.896,20.430,38.059,20.566,38.095,20.990C38.131,21.567,38.113,22.161,38.113,22.738C38.131,22.976,38.113,23.196,38.077,23.434C38.005,23.739,37.878,23.858,37.553,23.892C37.300,23.909,37.065,23.892,36.812,23.875C35.602,23.773,34.427,23.994,33.289,24.350C33.036,24.435,33.036,24.605,33.036,24.791L33.036,32.936C33.036,33.089,33.036,33.224,33.018,33.377C33.000,33.598,32.819,33.767,32.585,33.767C32.458,33.784,32.314,33.784,32.187,33.784L29.838,33.784C29.712,33.784,29.567,33.784,29.441,33.767C29.206,33.750,29.025,33.564,29.007,33.343C28.989,33.207,28.989,33.072,28.989,32.936L28.989,21.398C28.989,20.617,29.079,20.532,29.911,20.532L31.645,20.532C32.115,20.532,32.332,20.685,32.458,21.109C32.585,21.533,32.693,21.957,32.801,22.416ZZ" style="fill: rgb(255, 255, 255);"/></g></g><g id="shape-7d7d16fc-e83f-8046-8002-95e8b65085eb"><g class="fills" id="fills-7d7d16fc-e83f-8046-8002-95e8b65085eb"><path rx="0" ry="0" d="M39.848,27.133L39.848,21.109C39.866,20.702,40.028,20.549,40.462,20.532C41.402,20.515,42.341,20.515,43.281,20.532C43.696,20.532,43.823,20.651,43.859,21.041C43.877,21.194,43.877,21.330,43.877,21.482L43.877,32.783C43.877,32.970,43.859,33.157,43.841,33.343C43.823,33.564,43.642,33.716,43.407,33.733C43.299,33.750,43.208,33.750,43.100,33.750L40.589,33.750C40.498,33.750,40.426,33.750,40.336,33.733C40.083,33.716,39.866,33.530,39.848,33.292C39.830,33.157,39.830,33.021,39.830,32.885C39.848,31.002,39.848,29.067,39.848,27.133ZZ" style="fill: rgb(255, 255, 255);"/></g></g><g id="shape-7d7d16fc-e83f-8046-8002-95e8b650f264"><g class="fills" id="fills-7d7d16fc-e83f-8046-8002-95e8b650f264"><path rx="0" ry="0" d="M41.944,14.458C42.233,14.441,42.522,14.491,42.793,14.576C43.768,14.882,44.274,15.679,44.184,16.714C44.112,17.597,43.407,18.309,42.468,18.445C42.070,18.513,41.655,18.513,41.257,18.445C40.227,18.258,39.468,17.546,39.541,16.324C39.649,15.119,40.498,14.458,41.944,14.458ZZ" style="fill: rgb(255, 255, 255);"/></g></g><g id="shape-7d7d16fc-e83f-8046-8002-95e8b651681f"><g class="fills" id="fills-7d7d16fc-e83f-8046-8002-95e8b651681f"><path rx="0" ry="0" d="M26.315,25.741C26.243,24.859,25.990,23.994,25.610,23.196C24.870,21.737,23.731,20.668,21.997,20.295C20.010,19.887,18.221,20.295,16.595,21.431C16.486,21.533,16.360,21.618,16.215,21.686C16.179,21.669,16.143,21.652,16.143,21.635C16.089,21.465,16.053,21.296,15.999,21.126C15.854,20.702,15.673,20.549,15.185,20.549C14.643,20.549,14.083,20.566,13.541,20.549C13.126,20.532,12.746,20.583,12.457,20.888C12.457,26.827,12.457,32.783,12.475,38.705C12.710,39.061,13.072,39.129,13.487,39.112C14.138,39.095,14.788,39.112,15.438,39.112C16.577,39.112,16.577,39.112,16.577,38.060L16.577,33.224C16.577,33.106,16.522,32.970,16.649,32.868C17.552,33.530,18.654,33.937,19.793,34.039C21.383,34.192,22.828,33.818,24.039,32.800C24.924,32.037,25.574,31.052,25.918,29.967C26.405,28.575,26.442,27.167,26.315,25.741ZZM21.997,29.254C21.871,29.780,21.581,30.255,21.166,30.611C20.696,30.985,20.118,31.205,19.504,31.205C18.582,31.256,17.679,31.069,16.866,30.662C16.667,30.577,16.541,30.391,16.559,30.187L16.559,27.116C16.559,26.098,16.577,25.080,16.559,24.062C16.541,23.824,16.685,23.620,16.920,23.536C17.914,23.094,18.944,22.891,20.028,23.094C20.786,23.196,21.437,23.654,21.744,24.316C22.015,24.859,22.178,25.453,22.214,26.047C22.322,27.133,22.322,28.219,21.997,29.254ZZ" style="fill: rgb(255, 255, 255);"/></g></g><g id="shape-7d7d16fc-e83f-8046-8002-95e8b65296a3"><g class="fills" id="fills-7d7d16fc-e83f-8046-8002-95e8b65296a3"><path rx="0" ry="0" d="M75.333,28.236C76.688,28.473,78.079,28.490,79.434,28.287C80.229,28.185,80.988,27.964,81.692,27.608C82.505,27.167,83.102,26.556,83.355,25.707C83.987,23.569,83.011,21.415,80.644,20.617C79.488,20.261,78.259,20.142,77.049,20.295C74.194,20.600,72.333,22.076,71.484,24.638C70.888,26.386,70.960,28.168,71.448,29.933C72.080,32.189,73.670,33.530,76.073,34.005C77.446,34.293,78.838,34.243,80.211,34.039C80.933,33.920,81.656,33.750,82.343,33.496C82.758,33.343,82.975,33.106,82.957,32.664C82.939,32.257,82.957,31.833,82.957,31.409C82.957,30.900,82.740,30.747,82.216,30.866C81.692,30.985,81.186,31.086,80.662,31.188C79.542,31.409,78.386,31.409,77.266,31.222C75.730,30.934,74.736,29.695,74.827,28.168C74.989,28.185,75.170,28.202,75.333,28.236ZZM74.881,25.640C74.935,25.232,75.061,24.842,75.224,24.469C75.766,23.230,76.904,22.806,78.061,22.874C78.386,22.891,78.711,22.959,79.018,23.077C79.488,23.264,79.795,23.671,79.849,24.146C79.904,24.435,79.886,24.740,79.795,25.029C79.578,25.640,79.054,25.894,78.422,26.013C78.043,26.098,77.645,26.132,77.248,26.098C76.543,26.098,75.820,26.047,75.116,25.945C74.845,25.911,74.845,25.911,74.881,25.640ZZ" style="fill: rgb(255, 255, 255);"/></g></g></g></g></g></svg>