<svg xmlns:xlink="http://www.w3.org/1999/xlink" width="96" xmlns="http://www.w3.org/2000/svg" height="96" id="screenshot-e2f5b22b-19c3-807c-8002-981bc1cb5241" viewBox="0 0 96 96" style="-webkit-print-color-adjust: exact;" fill="none" version="1.1"><g id="shape-e2f5b22b-19c3-807c-8002-981bc1cb5241" rx="0" ry="0" style="fill: rgb(0, 0, 0);"><g id="shape-e2f5b22b-19c3-807c-8002-981bc1cc38ab"><g class="fills" id="fills-e2f5b22b-19c3-807c-8002-981bc1cc38ab"><rect width="96" height="96" x="0" transform="matrix(1.000000, 0.000000, 0.000000, 1.000000, 0.000000, 0.000000)" style="fill: rgb(0, 0, 0); fill-opacity: 1;" ry="0" fill="none" rx="0" y="0"/></g></g><g id="shape-e2f5b22b-19c3-807c-8002-981bf82893f6" rx="0" ry="0"><g id="shape-e2f5b22b-19c3-807c-8002-981bc1cd3e8c"><g class="fills" id="fills-e2f5b22b-19c3-807c-8002-981bc1cd3e8c"><path rx="0" ry="0" d="M48.000,11.672C27.299,11.672,10.500,27.946,10.500,48.000C10.500,68.054,27.299,84.328,48.000,84.328C68.701,84.328,85.500,68.054,85.500,48.000C85.500,27.946,68.701,11.672,48.000,11.672ZZ" style="fill: rgb(255, 255, 255);"/></g></g><g id="shape-e2f5b22b-19c3-807c-8002-981bc1ce2e45"><g class="fills" id="fills-e2f5b22b-19c3-807c-8002-981bc1ce2e45"><path rx="0" ry="0" d="M71.982,44.353C71.196,44.353,70.712,44.162,70.031,43.781C59.265,37.556,40.016,36.062,27.556,39.431C27.012,39.577,26.332,39.812,25.606,39.812C23.610,39.812,22.083,38.303,22.083,36.354C22.083,34.362,23.353,33.234,24.714,32.854C30.036,31.345,35.994,30.627,42.481,30.627C53.519,30.627,65.087,32.854,73.539,37.629C74.719,38.288,75.490,39.196,75.490,40.939C75.490,42.932,73.827,44.353,71.982,44.353ZZM67.294,55.515C66.508,55.515,65.979,55.178,65.434,54.899C55.984,49.479,41.891,47.297,29.356,50.593C28.630,50.783,28.237,50.974,27.556,50.974C25.939,50.974,24.623,49.699,24.623,48.132C24.623,46.564,25.409,45.524,26.967,45.100C31.170,43.957,35.465,43.107,41.755,43.107C51.569,43.107,61.049,45.466,68.519,49.772C69.744,50.476,70.228,51.384,70.228,52.658C70.213,54.240,68.943,55.515,67.294,55.515ZZM63.227,65.124C62.592,65.124,62.199,64.934,61.609,64.597C52.173,59.089,41.196,58.854,30.354,61.008C29.764,61.154,28.993,61.389,28.554,61.389C27.088,61.389,26.165,60.261,26.165,59.074C26.165,57.565,27.088,56.848,28.222,56.613C40.606,53.962,53.262,54.196,64.058,60.451C64.981,61.022,65.525,61.535,65.525,62.868C65.525,64.201,64.452,65.124,63.227,65.124ZZ"/></g></g></g></g></svg>