<svg xmlns:xlink="http://www.w3.org/1999/xlink" width="96" xmlns="http://www.w3.org/2000/svg" height="96" id="screenshot-7d7d16fc-e83f-8046-8002-95e66c49dadc" viewBox="0 0 96 96" style="-webkit-print-color-adjust: exact;" fill="none" version="1.1"><g id="shape-7d7d16fc-e83f-8046-8002-95e66c49dadc" rx="0" ry="0" style="fill: rgb(0, 0, 0);"><g id="shape-7d7d16fc-e83f-8046-8002-95e67801aab4"><g class="fills" id="fills-7d7d16fc-e83f-8046-8002-95e67801aab4"><rect rx="0" ry="0" x="0" y="0" transform="matrix(1.000000, 0.000000, 0.000000, 1.000000, 0.000000, 0.000000)" width="95.99999999999977" height="95.99999999999955"/></g></g><g id="shape-7d7d16fc-e83f-8046-8002-95e698caf6ad" rx="0" ry="0"><g id="shape-7d7d16fc-e83f-8046-8002-95e66c4ab7fa"><g class="fills" id="fills-7d7d16fc-e83f-8046-8002-95e66c4ab7fa"><path rx="0" ry="0" d="M83.836,29.989C82.962,26.758,80.442,24.228,77.211,23.364C72.871,21.689,30.837,20.868,18.644,23.412C15.413,24.286,12.883,26.806,12.019,30.037C10.060,38.630,9.912,57.208,12.067,65.993C12.941,69.224,15.461,71.754,18.692,72.618C27.285,74.596,68.138,74.874,77.259,72.618C80.490,71.744,83.020,69.224,83.884,65.993C85.972,56.632,86.121,39.206,83.836,29.989ZZ" style="fill: rgb(255, 255, 255);"/></g></g><g id="shape-7d7d16fc-e83f-8046-8002-95e66c4ac88e"><g class="fills" id="fills-7d7d16fc-e83f-8046-8002-95e66c4ac88e"><path rx="0" ry="0" d="M60.313,47.991L40.727,36.758L40.727,59.224Z" style="fill: rgb(0, 0, 0);"/></g></g></g></g></svg>